<?xml version="1.0" encoding="UTF-8" standalone="no"?>
<!-- Created with Inkscape (http://www.inkscape.org/) -->

<svg
   width="50.799999mm"
   height="63.499992mm"
   viewBox="0 0 50.799999 63.499993"
   version="1.1"
   id="svg1"
   xml:space="preserve"
   xmlns="http://www.w3.org/2000/svg"
   xmlns:svg="http://www.w3.org/2000/svg"><defs
     id="defs1" /><g
     id="layer1"
     transform="translate(-73.787858,-72.06363)"><path
       style="fill:#000000"
       d="m 80.931608,134.76987 v -0.79375 h 15.74271 15.742712 v 0.79375 0.79375 H 96.674318 80.931608 Z m -3.43958,-2.77812 v -0.92604 h 19.18229 19.182292 v 0.92604 0.92604 H 96.674318 77.492028 Z m -1.32292,-3.83646 v -1.32292 h 21.16667 21.166672 v 1.32292 1.32292 H 97.335778 76.169108 Z m 29.897922,-4.49792 v -1.85208 h 8.33437 8.33438 v 1.85208 1.85209 h -8.33438 -8.33437 z m -32.279172,-0.66145 v -1.98438 h 9.39271 9.39271 v 1.98438 1.98437 h -9.39271 -9.39271 z m 0.52917,-6.48229 v -3.43959 h 8.86354 8.86354 v 3.43959 3.43958 h -8.86354 -8.86354 z m 31.485412,0 v -3.43959 h 7.9375 7.93751 v 3.43959 3.43958 h -7.93751 -7.9375 z M 74.581608,106.45946 v -4.49792 h 8.73125 8.73125 v 4.49792 4.49792 h -8.73125 -8.73125 z m 0.26458,-12.43542 v -5.55625 h 8.46667 8.46667 v 5.55625 5.55625 h -8.46667 -8.46667 z m 32.808342,-0.13229 v -5.42396 h 8.46667 8.46666 v 5.42396 5.42396 h -8.46666 -8.46667 z M 84.900358,78.67821 v -6.61458 h 16.668752 16.66875 v 6.61458 6.61458 H 101.56911 84.900358 Z"
       id="path1" /></g></svg>
